<svg xmlns="http://www.w3.org/2000/svg" class="svg-logo" width="2400" height="2400" viewBox="0 0 630 430" style="height: auto;"><rect width="630" height="630" y="-100" rx="0" ry="0" fill="#000000" fill-opacity="1"></rect><g data-element="wrapper" transform="translate(116.14506216048906 62.9928642272927) scale(0.6500000000000095)"><g ><g data-element="icon" transform="scale(0.26666666666666666) translate(-54.37644544328724 528.7502849530239)"><path id="color_x5F_2" d="M474.512,318.842c-1.035,17.429-5.173,31.398-9.242,31.199    c-4.069-0.198-6.529-14.489-5.494-31.918c1.035-17.429,5.173-31.398,9.242-31.199C473.087,287.123,475.546,301.413,474.512,318.842z     M423.265,281.271c-6.983,6.043-10.899,14.921-13.237,23.855c-2.339,8.934-3.317,18.178-5.628,27.119    c-2.311,8.941-6.165,17.837-13.092,23.945c9.273-0.995,18.422-3.149,27.166-6.395c3.755-1.394,7.565-3.08,10.221-6.078    c4.337-4.895,4.636-12.022,5.243-18.533c1.571-16.876,6.732-33.41,15.041-48.183C440.814,272.685,430.247,275.228,423.265,281.271z     M249.936,379.114c-2.631-1.239-5.974-0.144-8.789,0.902c-11.875,4.411-24.276,7.835-36.945,10.201    c-10.175,1.901-21.002,3.295-29.245,8.614c-2.414,1.558-4.717,3.914-3.971,6.31c0.99,3.18,6.148,3.694,10.184,3.572    c7.806-0.237,15.612-0.473,23.417-0.709c10.251-0.31,20.793-0.674,30.253-4.078c9.46-3.404,17.707-10.615,18.031-18.995    C252.957,382.711,252.266,380.212,249.936,379.114z M78.041,398.611c-4.081-2.942-6.897-6.853-10.477-9.552    c-3.884-2.929-10.215-2.296-13.438,1.248c-3.041,3.343-5.415,7.085-6.975,11.033c-0.656,1.658-1.161,3.492-0.366,5.082    c1.026,2.05,3.844,3.021,6.461,3.612c6.463,1.462,13.327,1.814,20.024,1.027c2.074-0.244,4.176-0.608,5.997-1.478    c1.821-0.87,3.34-2.324,3.63-4.02C83.374,402.771,80.592,400.45,78.041,398.611z M294.627,367.794    c-4.07-0.199-8.207,13.77-9.242,31.199c-1.035,17.429,1.425,31.719,5.494,31.918c4.069,0.198,8.207-13.77,9.242-31.199    C301.157,382.282,298.697,367.992,294.627,367.794z" fill="#ffffff" fill-opacity="1"></path> <path id="color_x5F_1" d="M550.909,176.094c-13.641-20.908-47.115-33.188-72.028-34.769c-92.854-5.89-186.018-1.845-278.97,2.202    c0,0,4.226,2.961,11.151,3.037c6.925,0.076,228.756-1.751,269.378,6.876c40.621,8.627,75.76,26.511,55.987,77.443    c-8.235,21.211-29.855,34.901-52.28,43.676c-11.532-9.57-31.694-15.848-57.6-15.044c0,0-3.679-0.81-10.181-1.961    c-30.924,21.299-70.993,46.406-103.241,58.745c-32.545,12.453-57.553,19.458-91.16,21.196c-31.171,1.611-42.344-1.716-73.516-0.104    c-5.428,0.281-11.592,0.138-15.536-2.64l-11.648,3.245c-69.3,23.236-94.628,71.564-82.384,100.874    c12.244,29.309,145.144,23.811,187.308,18.695c22.917-2.78,41.785-9.532,54.248-15.12c5.884,0.287,11.174,0.545,13.209,0.644    c2.401,0.117,4.253-2.111,5.46-3.903c2.308-3.424,4.394-7.735,5.553-11.702c0.736-2.519,1.341-5.077,1.849-7.652    c1.167-5.919,1.83-11.939,2.095-17.965c0.93-21.135-2.191-38.082-7.477-41.622c0.757-0.46,1.522-0.722,2.291-0.715    c6.517,0.062,10.585,18.575,9.539,42.336c-0.428,9.717-1.897,18.584-3.94,25.596c25.411-13.402,85.349-44.953,127.516-66.683    c9.042,0.441,25.501,1.243,29.494,1.438c6.757,0.329,13.395-18.953,14.827-43.068c1.053-17.735-1.01-33.114-4.859-40.157    c5.875,2.591,9.503,20.506,8.227,42.003c-0.36,6.058-1.08,11.78-2.056,16.943c11.913-6.194,13.652-13.799,13.447-23.273    c28.969-17.626,52.698-43.241,63.459-74.894C566.98,216.5,566.433,199.887,550.909,176.094z M79.517,443.111    c-1.006,2.948-4.454,4.085-7.462,4.221c-4.901,0.221-9.728-1.121-14.464-2.451c-4.169-1.171-8.599-2.508-11.409-5.915    c-2.291-2.778-3.135-6.503-3.905-10.073c-0.476-2.208-0.808-4.909,0.848-6.379c1.714-1.522,4.324-0.643,6.387,0.304    c7.48,3.433,14.962,6.866,22.442,10.299c2.063,0.947,4.179,1.93,5.767,3.595C79.309,438.377,80.271,440.902,79.517,443.111z     M82.897,405.564c-0.29,1.696-1.808,3.15-3.63,4.02c-1.821,0.87-3.923,1.235-5.997,1.478c-6.698,0.787-13.561,0.435-20.024-1.027    c-2.617-0.592-5.435-1.563-6.461-3.612c-0.796-1.59-0.29-3.424,0.366-5.082c1.56-3.947,3.934-7.69,6.975-11.033    c3.224-3.544,9.554-4.177,13.438-1.248c3.579,2.699,6.396,6.609,10.477,9.552C80.592,400.45,83.374,402.771,82.897,405.564z     M237.683,429.406c-0.252,4.227-1.224,8.743-3.81,11.735c-2.807,3.247-6.816,3.965-10.52,4.492    c-14.781,2.103-29.572,3.888-44.364,5.356c-1.886,0.187-4.1,0.193-5.124-1.666c-0.858-1.556-0.441-3.871,0.561-5.469    c1.002-1.598,2.464-2.637,3.891-3.601c15.774-10.661,32.836-18.059,50.195-21.805c5.122-1.105,9.481,3.664,9.218,10.032    C237.717,428.789,237.702,429.097,237.683,429.406z M234.84,403.927c-9.46,3.404-20.003,3.767-30.253,4.078    c-7.805,0.236-15.612,0.473-23.417,0.709c-4.037,0.122-9.195-0.392-10.184-3.572c-0.746-2.396,1.557-4.753,3.971-6.31    c8.243-5.319,19.07-6.714,29.245-8.614c12.669-2.366,25.07-5.791,36.945-10.201c2.815-1.046,6.159-2.141,8.789-0.902    c2.331,1.098,3.021,3.597,2.935,5.818C252.547,393.312,244.3,400.523,234.84,403.927z M300.122,399.712    c-1.035,17.429-5.173,31.398-9.242,31.199c-4.069-0.199-6.529-14.489-5.494-31.918c1.035-17.429,5.172-31.398,9.242-31.199    C298.697,367.992,301.157,382.282,300.122,399.712z M433.937,325.184c-0.606,6.511-0.906,13.638-5.243,18.533    c-2.656,2.998-6.466,4.684-10.221,6.078c-8.743,3.246-17.892,5.4-27.166,6.395c6.926-6.108,10.781-15.004,13.092-23.945    c2.311-8.941,3.289-18.185,5.628-27.119c2.339-8.934,6.254-17.812,13.237-23.855c6.983-6.043,17.549-8.587,25.713-4.27    C440.669,291.774,435.508,308.307,433.937,325.184z M474.512,318.842c-1.035,17.429-5.173,31.398-9.242,31.199    c-4.069-0.198-6.529-14.489-5.494-31.918c1.035-17.429,5.173-31.398,9.242-31.199C473.087,287.123,475.546,301.413,474.512,318.842z     M400.807,253.986c-48.126,20.531-92.413,32.139-153.977,33.907c-25.125,0.722-28.62-0.656-58.216,0    c-7.298,0.162-13.235,0.604-18.372,1.488c7.846-7.037,17.029-13.276,27.483-17.121c27.944-10.278,60.685-17.189,90.485-20.405    c19.691-7.184,39.16-15.056,58.257-23.587c7.591-3.391,15.039-7.095,22.324-11.099c6.689-3.676,23.275-11.552,22.226-20.734    c-1.6-14.007-34.062-12.93-43.797-12.93c-7.158,0-45.785-0.226-59.291-0.307c-3.061-0.018-6.058-0.835-8.707-2.371l-3.66-2.122    c23.216,0,46.432,0,69.649,0c15.686,0,33.835-0.715,48.999,4.576c5.899,2.058,10.243,4.239,11.575,10.89    c3.373,16.855-25.913,30.826-37.673,37.055c-13.239,7.013-27.004,13.057-40.947,18.542c14.111,0.019,27.545,0.703,39.685,1.704    c11.834-5.47,23.405-11.51,34.586-18.216c12.127-7.275,24.917-16.896,26.922-30.895c2.548-17.791-14.39-33.172-31.88-37.307    c0,0,34.541,1.788,43.889,31.028C447.444,218.221,426.131,237.571,400.807,253.986z" fill="#666666" fill-opacity="1"></path></g><path d="M191.61 194.78L191.61 235.50L183.49 235.50L183.49 224.50L154.92 224.50L154.92 235.50L146.80 235.50L146.80 213.09Q146.80 208.19 148.49 204.06Q150.17 199.94 153.17 196.97Q156.17 194 160.27 192.34Q164.36 190.69 169.20 190.69L169.20 190.69L187.52 190.69Q188.36 190.69 189.11 191Q189.86 191.31 190.42 191.88Q190.99 192.44 191.30 193.19Q191.61 193.94 191.61 194.78L191.61 194.78ZM154.92 213.09L154.92 216.38L183.49 216.38L183.49 198.81L169.20 198.81Q168.83 198.81 167.63 198.92Q166.42 199.03 164.84 199.47Q163.27 199.91 161.52 200.81Q159.77 201.72 158.30 203.31Q156.83 204.91 155.88 207.30Q154.92 209.69 154.92 213.09L154.92 213.09ZM242.20 227.38L242.20 235.50L205.14 235.50Q204.27 235.50 203.52 235.19Q202.77 234.88 202.22 234.33Q201.67 233.78 201.36 233.03Q201.05 232.28 201.05 231.41L201.05 231.41L201.05 190.69L209.17 190.69L209.17 227.38L242.20 227.38ZM282.30 190.69L282.30 198.81L264.39 198.81L264.39 235.50L256.27 235.50L256.27 198.81L238.33 198.81L238.33 190.69L282.30 190.69ZM296.45 190.69L296.45 235.50L288.33 235.50L288.33 190.69L296.45 190.69ZM350.74 190.69L350.74 232.03Q350.74 232.91 350.41 233.66Q350.08 234.41 349.53 234.95Q348.99 235.50 348.24 235.81Q347.49 236.13 346.64 236.13L346.64 236.13Q345.89 236.13 345.13 235.84Q344.36 235.56 343.77 234.94L343.77 234.94L314.08 203.94L314.08 235.50L305.95 235.50L305.95 194.16Q305.95 192.91 306.66 191.89Q307.36 190.88 308.45 190.38L308.45 190.38Q309.61 189.91 310.83 190.14Q312.05 190.38 312.92 191.28L312.92 191.28L342.61 222.25L342.61 190.69L350.74 190.69ZM404.89 224.09L404.89 225.66Q404.89 227.16 404.38 228.88Q403.86 230.59 402.69 232.06Q401.52 233.53 399.64 234.52Q397.77 235.50 395.05 235.50L395.05 235.50L364.20 235.50Q363.33 235.50 362.58 235.19Q361.83 234.88 361.28 234.33Q360.74 233.78 360.42 233.03Q360.11 232.28 360.11 231.41L360.11 231.41L360.11 194.78Q360.11 193.94 360.42 193.19Q360.74 192.44 361.28 191.88Q361.83 191.31 362.58 191Q363.33 190.69 364.20 190.69L364.20 190.69L391.39 190.69Q392.89 190.69 394.61 191.22Q396.33 191.75 397.81 192.92Q399.30 194.09 400.28 195.97Q401.27 197.84 401.27 200.56L401.27 200.56L401.27 202.09Q401.27 204.25 400.55 206.73Q399.83 209.22 398.24 211.44L398.24 211.44Q399.61 212.28 400.81 213.47Q402.02 214.66 402.92 216.22Q403.83 217.78 404.36 219.75Q404.89 221.72 404.89 224.09L404.89 224.09ZM396.77 225.59L396.77 224.09Q396.77 222.50 396.27 221.23Q395.77 219.97 394.86 219.06Q393.95 218.16 392.67 217.67Q391.39 217.19 389.80 217.19L389.80 217.19L371.49 217.19L371.49 209L386.14 209Q387.74 209 389.02 208.52Q390.30 208.03 391.20 207.13Q392.11 206.22 392.59 204.95Q393.08 203.69 393.08 202.09L393.08 202.09L393.08 200.56Q393.08 198.81 391.39 198.81L391.39 198.81L368.24 198.81L368.24 227.38L395.05 227.38Q395.27 227.38 395.58 227.34Q395.89 227.31 396.14 227.16Q396.39 227 396.58 226.63Q396.77 226.25 396.77 225.59L396.77 225.59ZM455.92 194.78L455.92 235.50L447.80 235.50L447.80 224.50L419.24 224.50L419.24 235.50L411.11 235.50L411.11 213.09Q411.11 208.19 412.80 204.06Q414.49 199.94 417.49 196.97Q420.49 194 424.58 192.34Q428.67 190.69 433.52 190.69L433.52 190.69L451.83 190.69Q452.67 190.69 453.42 191Q454.17 191.31 454.74 191.88Q455.30 192.44 455.61 193.19Q455.92 193.94 455.92 194.78L455.92 194.78ZM419.24 213.09L419.24 216.38L447.80 216.38L447.80 198.81L433.52 198.81Q433.14 198.81 431.94 198.92Q430.74 199.03 429.16 199.47Q427.58 199.91 425.83 200.81Q424.08 201.72 422.61 203.31Q421.14 204.91 420.19 207.30Q419.24 209.69 419.24 213.09L419.24 213.09ZM508.42 222.31L508.42 222.31Q508.42 224.72 507.81 226.64Q507.20 228.56 506.20 230.03Q505.20 231.50 503.86 232.53Q502.52 233.56 501.08 234.22Q499.64 234.88 498.16 235.19Q496.67 235.50 495.36 235.50L495.36 235.50L488.20 235.50L487.36 237.69Q488.27 237.69 489.41 237.91Q490.55 238.13 491.56 238.73Q492.58 239.34 493.27 240.44Q493.95 241.53 493.95 243.31L493.95 243.31Q493.95 245.09 493.06 246.31Q492.17 247.53 490.75 248.28Q489.33 249.03 487.56 249.34Q485.80 249.66 484.05 249.66L484.05 249.66Q482.45 249.66 481.39 249.58Q480.33 249.50 479.58 249.39Q478.83 249.28 478.25 249.16Q477.67 249.03 477.08 248.94L477.08 248.94L477.08 243.44Q478.33 244.03 479.97 244.44Q481.61 244.84 483.33 244.84L483.33 244.84Q485.11 244.84 486.30 244.48Q487.49 244.13 487.49 243.25L487.49 243.25Q487.49 242.75 487.11 242.44Q486.74 242.13 486.17 241.95Q485.61 241.78 484.99 241.72Q484.36 241.66 483.86 241.66L483.86 241.66Q483.14 241.66 482.33 241.75Q481.52 241.84 480.89 242.03L480.89 242.03L483.33 235.50L464.02 235.50L464.02 227.38L495.36 227.38Q497.70 227.38 499.00 226Q500.30 224.63 500.30 222.31L500.30 222.31Q500.30 221.19 499.95 220.25Q499.61 219.31 498.97 218.63Q498.33 217.94 497.41 217.56Q496.49 217.19 495.36 217.19L495.36 217.19L476.67 217.19Q474.70 217.19 472.42 216.48Q470.14 215.78 468.19 214.22Q466.24 212.66 464.94 210.13Q463.64 207.59 463.64 203.94L463.64 203.94Q463.64 200.28 464.94 197.77Q466.24 195.25 468.19 193.67Q470.14 192.09 472.42 191.39Q474.70 190.69 476.67 190.69L476.67 190.69L504.33 190.69L504.33 198.81L476.67 198.81Q474.36 198.81 473.06 200.22Q471.77 201.63 471.77 203.94L471.77 203.94Q471.77 206.28 473.06 207.64Q474.36 209 476.67 209L476.67 209L495.42 209Q496.74 209.03 498.20 209.36Q499.67 209.69 501.13 210.38Q502.58 211.06 503.89 212.11Q505.20 213.16 506.22 214.63Q507.24 216.09 507.83 218Q508.42 219.91 508.42 222.31ZM559.14 194.78L559.14 235.50L551.02 235.50L551.02 224.50L522.45 224.50L522.45 235.50L514.33 235.50L514.33 213.09Q514.33 208.19 516.02 204.06Q517.70 199.94 520.70 196.97Q523.70 194 527.80 192.34Q531.89 190.69 536.74 190.69L536.74 190.69L555.05 190.69Q555.89 190.69 556.64 191Q557.39 191.31 557.95 191.88Q558.52 192.44 558.83 193.19Q559.14 193.94 559.14 194.78L559.14 194.78ZM522.45 213.09L522.45 216.38L551.02 216.38L551.02 198.81L536.74 198.81Q536.36 198.81 535.16 198.92Q533.95 199.03 532.38 199.47Q530.80 199.91 529.05 200.81Q527.30 201.72 525.83 203.31Q524.36 204.91 523.41 207.30Q522.45 209.69 522.45 213.09L522.45 213.09ZM592.52 213.09L615.55 235.50L604.02 235.50L585.74 217.19L580.02 217.19L580.02 209L585.74 209L604.02 190.69L615.55 190.69L592.52 213.09ZM576.77 190.69L576.77 235.50L568.64 235.50L568.64 190.69L576.77 190.69Z" data-element="company-name" data-text-path="" data-text="ALTINBAŞAK" data-font-family="Audiowide" fill="#ffffff" fill-opacity="1"></path><path d="M254.42 280.57L254.42 280.57Q254.42 281.65 254.15 282.51Q253.88 283.38 253.43 284.04Q252.98 284.70 252.37 285.16Q251.77 285.63 251.12 285.92Q250.47 286.22 249.80 286.36Q249.14 286.50 248.55 286.50L248.55 286.50L234.44 286.50L234.44 282.84L248.55 282.84Q249.60 282.84 250.18 282.23Q250.77 281.61 250.77 280.57L250.77 280.57Q250.77 280.06 250.61 279.64Q250.46 279.22 250.17 278.91Q249.88 278.60 249.47 278.43Q249.05 278.26 248.55 278.26L248.55 278.26L240.14 278.26Q239.25 278.26 238.22 277.94Q237.20 277.63 236.32 276.92Q235.44 276.22 234.86 275.08Q234.27 273.94 234.27 272.30L234.27 272.30Q234.27 270.65 234.86 269.52Q235.44 268.39 236.32 267.68Q237.20 266.97 238.22 266.65Q239.25 266.33 240.14 266.33L240.14 266.33L252.58 266.33L252.58 269.99L240.14 269.99Q239.10 269.99 238.51 270.62Q237.93 271.26 237.93 272.30L237.93 272.30Q237.93 273.35 238.51 273.96Q239.10 274.57 240.14 274.57L240.14 274.57L248.55 274.57L248.57 274.57Q249.16 274.59 249.83 274.74Q250.49 274.88 251.14 275.19Q251.79 275.50 252.39 275.97Q252.98 276.45 253.43 277.11Q253.89 277.77 254.16 278.63Q254.42 279.48 254.42 280.57ZM277.22 266.33L277.22 284.66Q277.22 285.05 277.08 285.39Q276.94 285.73 276.69 285.97Q276.43 286.22 276.09 286.36Q275.76 286.50 275.38 286.50L275.38 286.50L267.14 286.50Q265.97 286.50 264.77 286.25Q263.58 285.99 262.46 285.47Q261.34 284.94 260.36 284.12Q259.37 283.31 258.64 282.19Q257.90 281.07 257.48 279.63Q257.05 278.19 257.05 276.42L257.05 276.42L257.05 266.33L260.71 266.33L260.71 276.42Q260.71 277.96 261.14 279.03Q261.57 280.10 262.23 280.82Q262.89 281.54 263.68 281.94Q264.46 282.35 265.17 282.55Q265.89 282.75 266.43 282.79Q266.97 282.84 267.14 282.84L267.14 282.84L273.56 282.84L273.56 266.33L277.22 266.33ZM265.69 263.20L265.69 263.20Q265.69 263.58 265.54 263.91Q265.39 264.24 265.15 264.49Q264.90 264.73 264.57 264.87Q264.24 265.01 263.87 265.01L263.87 265.01Q263.49 265.01 263.16 264.87Q262.83 264.73 262.59 264.49Q262.34 264.24 262.20 263.91Q262.06 263.58 262.06 263.20L262.06 263.20Q262.06 262.83 262.20 262.50Q262.34 262.17 262.59 261.93Q262.83 261.68 263.16 261.53Q263.49 261.38 263.87 261.38L263.87 261.38Q264.24 261.38 264.57 261.53Q264.90 261.68 265.15 261.93Q265.39 262.17 265.54 262.50Q265.69 262.83 265.69 263.20ZM272.20 263.20L272.20 263.20Q272.20 263.58 272.05 263.91Q271.90 264.24 271.66 264.49Q271.41 264.73 271.08 264.87Q270.75 265.01 270.39 265.01L270.39 265.01Q270.01 265.01 269.67 264.87Q269.34 264.73 269.10 264.49Q268.85 264.24 268.71 263.91Q268.57 263.58 268.57 263.20L268.57 263.20Q268.57 262.83 268.71 262.50Q268.85 262.17 269.10 261.93Q269.34 261.68 269.67 261.53Q270.01 261.38 270.39 261.38L270.39 261.38Q270.75 261.38 271.08 261.53Q271.41 261.68 271.66 261.93Q271.90 262.17 272.05 262.50Q272.20 262.83 272.20 263.20ZM301.62 270.78L301.62 273.11Q301.62 274.36 301.31 275.35Q301.00 276.33 300.47 277.09Q299.94 277.84 299.26 278.37Q298.57 278.91 297.81 279.25Q297.06 279.60 296.30 279.75Q295.53 279.90 294.85 279.90L294.85 279.90L302.49 286.50L296.84 286.50L289.21 279.90L286.59 279.90L286.59 276.25L294.85 276.25Q295.54 276.19 296.11 275.96Q296.68 275.73 297.10 275.33Q297.51 274.94 297.74 274.39Q297.96 273.83 297.96 273.11L297.96 273.11L297.96 270.81Q297.96 270.50 297.88 270.34Q297.81 270.17 297.69 270.10Q297.57 270.02 297.43 270.00Q297.30 269.99 297.19 269.99L297.19 269.99L285.12 269.99L285.12 286.50L281.47 286.50L281.47 268.18Q281.47 267.80 281.61 267.46Q281.75 267.12 281.99 266.87Q282.24 266.62 282.58 266.48Q282.91 266.33 283.31 266.33L283.31 266.33L297.19 266.33Q298.41 266.33 299.26 266.78Q300.10 267.22 300.63 267.89Q301.15 268.56 301.39 269.33Q301.62 270.10 301.62 270.78L301.62 270.78ZM325.05 266.33L325.05 284.66Q325.05 285.05 324.91 285.39Q324.76 285.73 324.51 285.97Q324.26 286.22 323.92 286.36Q323.58 286.50 323.20 286.50L323.20 286.50L314.96 286.50Q313.80 286.50 312.60 286.25Q311.41 285.99 310.29 285.47Q309.17 284.94 308.19 284.12Q307.20 283.31 306.46 282.19Q305.72 281.07 305.30 279.63Q304.88 278.19 304.88 276.42L304.88 276.42L304.88 266.33L308.54 266.33L308.54 276.42Q308.54 277.96 308.97 279.03Q309.39 280.10 310.06 280.82Q310.72 281.54 311.50 281.94Q312.29 282.35 313.00 282.55Q313.71 282.75 314.25 282.79Q314.79 282.84 314.96 282.84L314.96 282.84L321.39 282.84L321.39 266.33L325.05 266.33ZM313.51 263.20L313.51 263.20Q313.51 263.58 313.37 263.91Q313.22 264.24 312.97 264.49Q312.73 264.73 312.40 264.87Q312.07 265.01 311.70 265.01L311.70 265.01Q311.32 265.01 310.99 264.87Q310.66 264.73 310.41 264.49Q310.17 264.24 310.03 263.91Q309.89 263.58 309.89 263.20L309.89 263.20Q309.89 262.83 310.03 262.50Q310.17 262.17 310.41 261.93Q310.66 261.68 310.99 261.53Q311.32 261.38 311.70 261.38L311.70 261.38Q312.07 261.38 312.40 261.53Q312.73 261.68 312.97 261.93Q313.22 262.17 313.37 262.50Q313.51 262.83 313.51 263.20ZM320.03 263.20L320.03 263.20Q320.03 263.58 319.88 263.91Q319.73 264.24 319.48 264.49Q319.24 264.73 318.91 264.87Q318.58 265.01 318.21 265.01L318.21 265.01Q317.83 265.01 317.50 264.87Q317.17 264.73 316.92 264.49Q316.68 264.24 316.54 263.91Q316.40 263.58 316.40 263.20L316.40 263.20Q316.40 262.83 316.54 262.50Q316.68 262.17 316.92 261.93Q317.17 261.68 317.50 261.53Q317.83 261.38 318.21 261.38L318.21 261.38Q318.58 261.38 318.91 261.53Q319.24 261.68 319.48 261.93Q319.73 262.17 319.88 262.50Q320.03 262.83 320.03 263.20ZM347.35 282.84L347.35 286.50L334.16 286.50Q333.65 286.50 333.07 286.38Q332.49 286.26 331.92 286.01Q331.35 285.75 330.83 285.35Q330.31 284.95 329.90 284.38Q329.50 283.81 329.26 283.06Q329.03 282.31 329.03 281.37L329.03 281.37L329.03 271.47Q329.03 270.96 329.15 270.38Q329.26 269.79 329.52 269.22Q329.77 268.65 330.18 268.13Q330.59 267.61 331.16 267.21Q331.73 266.81 332.47 266.57Q333.22 266.33 334.16 266.33L334.16 266.33L347.35 266.33L347.35 269.99L334.16 269.99Q333.44 269.99 333.06 270.37Q332.68 270.75 332.68 271.50L332.68 271.50L332.68 281.37Q332.68 282.07 333.07 282.46Q333.46 282.84 334.16 282.84L334.16 282.84L347.35 282.84ZM370.57 266.33L370.57 284.66Q370.57 285.05 370.43 285.39Q370.29 285.73 370.03 285.97Q369.78 286.22 369.44 286.36Q369.10 286.50 368.72 286.50L368.72 286.50L360.48 286.50Q359.32 286.50 358.12 286.25Q356.93 285.99 355.81 285.47Q354.69 284.94 353.71 284.12Q352.72 283.31 351.98 282.19Q351.24 281.07 350.82 279.63Q350.40 278.19 350.40 276.42L350.40 276.42L350.40 266.33L354.06 266.33L354.06 276.42Q354.06 277.96 354.49 279.03Q354.91 280.10 355.58 280.82Q356.24 281.54 357.02 281.94Q357.81 282.35 358.52 282.55Q359.23 282.75 359.77 282.79Q360.31 282.84 360.48 282.84L360.48 282.84L366.91 282.84L366.91 266.33L370.57 266.33ZM359.04 263.20L359.04 263.20Q359.04 263.58 358.89 263.91Q358.74 264.24 358.49 264.49Q358.25 264.73 357.92 264.87Q357.59 265.01 357.22 265.01L357.22 265.01Q356.84 265.01 356.51 264.87Q356.18 264.73 355.93 264.49Q355.69 264.24 355.55 263.91Q355.41 263.58 355.41 263.20L355.41 263.20Q355.41 262.83 355.55 262.50Q355.69 262.17 355.93 261.93Q356.18 261.68 356.51 261.53Q356.84 261.38 357.22 261.38L357.22 261.38Q357.59 261.38 357.92 261.53Q358.25 261.68 358.49 261.93Q358.74 262.17 358.89 262.50Q359.04 262.83 359.04 263.20ZM365.55 263.20L365.55 263.20Q365.55 263.58 365.40 263.91Q365.25 264.24 365.00 264.49Q364.76 264.73 364.43 264.87Q364.10 265.01 363.73 265.01L363.73 265.01Q363.35 265.01 363.02 264.87Q362.69 264.73 362.45 264.49Q362.20 264.24 362.06 263.91Q361.92 263.58 361.92 263.20L361.92 263.20Q361.92 262.83 362.06 262.50Q362.20 262.17 362.45 261.93Q362.69 261.68 363.02 261.53Q363.35 261.38 363.73 261.38L363.73 261.38Q364.10 261.38 364.43 261.53Q364.76 261.68 365.00 261.93Q365.25 262.17 365.40 262.50Q365.55 262.83 365.55 263.20ZM394.95 276.42L405.31 286.50L400.13 286.50L391.90 278.26L389.33 278.26L389.33 274.57L391.90 274.57L400.13 266.33L405.31 266.33L394.95 276.42ZM387.86 266.33L387.86 286.50L384.21 286.50L384.21 266.33L387.86 266.33ZM427.36 266.33L427.36 284.66Q427.36 285.05 427.22 285.39Q427.08 285.73 426.83 285.97Q426.58 286.22 426.24 286.36Q425.90 286.50 425.52 286.50L425.52 286.50L417.28 286.50Q416.11 286.50 414.92 286.25Q413.72 285.99 412.61 285.47Q411.49 284.94 410.50 284.12Q409.52 283.31 408.78 282.19Q408.04 281.07 407.62 279.63Q407.20 278.19 407.20 276.42L407.20 276.42L407.20 266.33L410.86 266.33L410.86 276.42Q410.86 277.96 411.28 279.03Q411.71 280.10 412.37 280.82Q413.04 281.54 413.82 281.94Q414.61 282.35 415.32 282.55Q416.03 282.75 416.57 282.79Q417.11 282.84 417.28 282.84L417.28 282.84L423.71 282.84L423.71 266.33L427.36 266.33ZM451.76 270.78L451.76 273.11Q451.76 274.36 451.45 275.35Q451.14 276.33 450.62 277.09Q450.09 277.84 449.40 278.37Q448.71 278.91 447.96 279.25Q447.21 279.60 446.44 279.75Q445.67 279.90 445.00 279.90L445.00 279.90L452.64 286.50L446.98 286.50L439.36 279.90L436.73 279.90L436.73 276.25L445.00 276.25Q445.69 276.19 446.26 275.96Q446.83 275.73 447.24 275.33Q447.66 274.94 447.88 274.39Q448.11 273.83 448.11 273.11L448.11 273.11L448.11 270.81Q448.11 270.50 448.03 270.34Q447.95 270.17 447.83 270.10Q447.71 270.02 447.58 270.00Q447.45 269.99 447.33 269.99L447.33 269.99L435.27 269.99L435.27 286.50L431.61 286.50L431.61 268.18Q431.61 267.80 431.75 267.46Q431.89 267.12 432.14 266.87Q432.39 266.62 432.72 266.48Q433.06 266.33 433.45 266.33L433.45 266.33L447.33 266.33Q448.56 266.33 449.40 266.78Q450.24 267.22 450.77 267.89Q451.30 268.56 451.53 269.33Q451.76 270.10 451.76 270.78L451.76 270.78ZM474.81 280.57L474.81 280.57Q474.81 281.65 474.54 282.51Q474.26 283.38 473.81 284.04Q473.36 284.70 472.76 285.16Q472.15 285.63 471.51 285.92Q470.86 286.22 470.19 286.36Q469.52 286.50 468.93 286.50L468.93 286.50L454.83 286.50L454.83 282.84L468.93 282.84Q469.99 282.84 470.57 282.23Q471.16 281.61 471.16 280.57L471.16 280.57Q471.16 280.06 471.00 279.64Q470.85 279.22 470.56 278.91Q470.27 278.60 469.85 278.43Q469.44 278.26 468.93 278.26L468.93 278.26L460.52 278.26Q459.64 278.26 458.61 277.94Q457.59 277.63 456.71 276.92Q455.83 276.22 455.24 275.08Q454.66 273.94 454.66 272.30L454.66 272.30Q454.66 270.65 455.24 269.52Q455.83 268.39 456.71 267.68Q457.59 266.97 458.61 266.65Q459.64 266.33 460.52 266.33L460.52 266.33L472.97 266.33L472.97 269.99L460.52 269.99Q459.48 269.99 458.90 270.62Q458.32 271.26 458.32 272.30L458.32 272.30Q458.32 273.35 458.90 273.96Q459.48 274.57 460.52 274.57L460.52 274.57L468.93 274.57L468.96 274.57Q469.55 274.59 470.21 274.74Q470.87 274.88 471.53 275.19Q472.18 275.50 472.77 275.97Q473.36 276.45 473.82 277.11Q474.28 277.77 474.54 278.63Q474.81 279.48 474.81 280.57ZM497.61 266.33L497.61 284.66Q497.61 285.05 497.47 285.39Q497.33 285.73 497.07 285.97Q496.82 286.22 496.48 286.36Q496.14 286.50 495.76 286.50L495.76 286.50L487.52 286.50Q486.36 286.50 485.16 286.25Q483.97 285.99 482.85 285.47Q481.73 284.94 480.75 284.12Q479.76 283.31 479.02 282.19Q478.29 281.07 477.86 279.63Q477.44 278.19 477.44 276.42L477.44 276.42L477.44 266.33L481.10 266.33L481.10 276.42Q481.10 277.96 481.53 279.03Q481.96 280.10 482.62 280.82Q483.28 281.54 484.06 281.94Q484.85 282.35 485.56 282.55Q486.27 282.75 486.81 282.79Q487.36 282.84 487.52 282.84L487.52 282.84L493.95 282.84L493.95 266.33L497.61 266.33Z" data-element="slogan" data-text-path="" data-text="SÜRÜCÜ KURSU" data-font-family="Audiowide" fill="#ffffff" fill-opacity="1"></path></g></g></svg>